<svg xmlns="http://www.w3.org/2000/svg" version="1.1" xmlnsXlink="http://www.w3.org/1999/xlink"
    xmlnsSvgjs="http://svgjs.com/svgjs" width="512" height="512" x="0" y="0" viewBox="0 0 496 496"
    style="enable-background:new 0 0 512 512" xmlSpace="preserve" class="">
    <g>
        <path
            d="M496 369.6c0 27.2-21.6 48.8-48 48.8H48c-26.4 0-48-21.6-48-48.8V126.4c0-27.2 21.6-48.8 48-48.8h400c26.4 0 48 21.6 48 48.8v243.2z"
            style="" fill="#009966" data-original="#009966"></path>
        <path d="M48 77.6h400c26.4 0 48 21.6 48 48.8v243.2c0 27.2-21.6 48.8-48 48.8" style="" fill="#038e5c"
            data-original="#038e5c"></path>
        <path d="M496 369.6c0 27.2-21.6 48.8-48 48.8H48c-26.4 0-48-21.6-48-48.8M48 77.6h400c26.4 0 48 21.6 48 48.8v88.8"
            style="" fill="#007a54" data-original="#007a54"></path>
        <path d="M60.8 155.2c3.2-2.4 3.2 4 0 11.2 1.6-2.4 4.8-8 4-12-.8-5.6-4-4.8-6.4-1.6-1.6 2.4-.8 4 2.4 2.4z"
            style="" fill="#ffffff" data-original="#ffffff"></path>
        <path
            d="M61.6 200.8c4-7.2 2.4-12.8 5.6-23.2 2.4-6.4 2.4-1.6 2.4 2.4-1.6 10.4-.8 27.2 13.6 26.4.8 9.6 3.2 26.4 3.2 32.8 0 5.6.8 4 2.4.8 1.6-3.2.8-7.2.8-12s-.8-13.6-1.6-25.6c1.6-1.6 4-4 4.8-5.6 1.6-4 2.4-3.2 3.2 0 1.6 6.4 8 10.4 16 4 8-5.6 4.8-16.8.8-28.8 3.2.8 4-1.6 2.4-4.8-.8-1.6-2.4-3.2-3.2-4.8-1.6-1.6-2.4-3.2-4-1.6s-2.4 3.2-3.2 4c-.8.8-.8 2.4 0 4.8 3.2 7.2 4.8 15.2 5.6 19.2.8 4-.8 4.8-4 4.8-2.4 0-6.4-.8-8-7.2s-2.4-8.8-1.6-13.6c0-4 .8-7.2-2.4-11.2-3.2-4-3.2-3.2-4-1.6-.8 2.4-1.6 5.6-.8 9.6 1.6 5.6 2.4 10.4 3.2 13.6.8 2.4-1.6 7.2-5.6 9.6-.8-8-1.6-17.6-2.4-26.4 4.8-1.6 2.4-7.2-1.6-13.6-2.4-4.8-4-3.2-5.6 0-1.6 3.2-.8 4.8.8 7.2-.8 2.4.8 5.6 1.6 11.2.8 4 1.6 14.4 1.6 23.2-3.2 0-5.6-2.4-7.2-5.6-2.4-6.4-2.4-12.8-.8-16 1.6-4 2.4-9.6 0-11.2s-4.8 0-6.4 3.2c-3.2 4.8-6.4 11.2-6.4 18.4 0 2.4-.8 8-2.4 10.4-.8 2.4-3.2 2.4-4.8-.8-3.2-4.8-4-17.6-4-24 0-3.2-.8-4-1.6 0-3.2 12.8.8 25.6 3.2 31.2 4 7.2 8 5.6 10.4.8z"
            style="" fill="#ffffff" data-original="#ffffff"></path>
        <path
            d="M100 159.2c1.6-1.6 1.6-1.6 2.4 0s3.2 1.6 4 0 1.6-2.4.8-4.8c-.8-1.6-.8-.8-1.6.8-.8 3.2-4 2.4-4-1.6s-.8-1.6-2.4.8c-1.6 4-4 3.2-4-.8 0-2.4-.8-4.8-2.4-1.6-.8 2.4 0 4.8.8 6.4 2.4 2.4 4.8 2.4 6.4.8zM76 219.2c2.4-.8 2.4-.8 2.4-4s-1.6-1.6-4.8-.8c-4.8 1.6-14.4 6.4-21.6 15.2-3.2 4-.8 2.4 1.6.8 4-3.2 16-9.6 22.4-11.2zM60 270.4c-2.4 4-7.2-1.6-4-12 .8-2.4 1.6-4 1.6-5.6v-5.6c0-1.6-1.6.8-2.4 4-.8 4.8-4 7.2-3.2 22.4.8 8.8 11.2 8.8 12-2.4 0-4.8-1.6-4.8-4-.8zM131.2 236.8c0-4-.8-8-.8-12 .8 0 .8-.8 1.6-.8 2.4 7.2 12.8 5.6 16 .8 1.6-2.4 1.6-2.4 3.2 0 2.4 3.2 10.4 4.8 12 0 1.6-4.8 1.6-9.6.8-12.8-.8-4-1.6-3.2-4-1.6s-.8 2.4 0 4.8c.8 9.6-7.2 8.8-8-.8-.8-6.4-1.6-4-2.4-.8-4 12-14.4 14.4-12.8 0 0-4-2.4-2.4-4-.8l-3.2 3.2c-.8-11.2-1.6-24-3.2-40 3.2 4 6.4-.8 4-4.8-1.6-3.2-4-11.2-5.6-15.2s-2.4-3.2-5.6.8c-3.2 3.2-2.4 4-1.6 8 0 4.8 0 8.8 1.6 17.6.8 6.4 2.4 20 4 36.8-1.6.8-4 2.4-5.6 3.2-.8-3.2-3.2-4.8-6.4-8-4.8-4.8-8-4.8-12 .8s-3.2 6.4-3.2 12c0 4.8-.8 6.4 3.2 8s5.6.8 8 0c1.6-.8 4-1.6 7.2-2.4.8 2.4 0 5.6-1.6 7.2-9.6 11.2-24 20-30.4 12-3.2-4-4.8-10.4-4-18.4.8-6.4-.8-3.2-1.6-1.6-2.4 7.2-3.2 18.4 0 24 4 8 11.2 11.2 22.4 5.6 11.2-4.8 21.6-13.6 21.6-25.6v-5.6c1.6-.8 3.2-1.6 4-2.4v13.6c.8 12.8-4.8 16.8-9.6 20.8-6.4 4.8-15.2 8.8-23.2 9.6-17.6 2.4-21.6-8.8-21.6-24 0-2.4.8-4 .8-7.2 0-6.4-.8-5.6-3.2.8-1.6 6.4-4 20.8 1.6 32.8 6.4 12 27.2 8.8 43.2.8 17.6-8.8 19.2-23.2 18.4-38.4zm-22.4-12c-4 1.6-5.6-.8-4.8-3.2 0-2.4.8-4 4-2.4 1.6.8 3.2 2.4 4.8 4.8-2.4.8-3.2.8-4 .8z"
            style="" fill="#ffffff" data-original="#ffffff"></path>
        <path
            d="M149.6 250.4c1.6-3.2 2.4-6.4 1.6-10.4-.8-2.4 0-3.2-2.4-4.8-2.4-.8-3.2.8-4 2.4-.8 2.4.8 5.6 4 4 .8 1.6 0 5.6-.8 8-.8 3.2 0 4 1.6.8zM156 185.6c-3.2 4-5.6 9.6-.8 12.8 2.4 1.6 7.2-.8 8.8-4 1.6-4 .8-4.8-2.4-.8-4 4.8-8.8.8-4-6.4 3.2-4.8.8-5.6-1.6-1.6zM142.4 186.4c11.2-4.8 17.6-11.2 20.8-16.8 3.2.8 4-1.6 2.4-4 .8-2.4 1.6-4 2.4-5.6 2.4-10.4-8-11.2-10.4-3.2-1.6 4-1.6 8 1.6 10.4-4.8 6.4-11.2 12-19.2 16.8-3.2 3.2-2.4 4.8 2.4 2.4zm19.2-28c.8-2.4 2.4-.8 2.4.8 0 .8-.8 2.4-1.6 3.2-1.6-.8-1.6-2.4-.8-4z"
            style="" fill="#ffffff" data-original="#ffffff"></path>
        <path
            d="M157.6 156.8c-1.6 4-1.6 8 1.6 10.4-.8.8-1.6 2.4-2.4 3.2l4 3.2c.8-1.6 2.4-2.4 3.2-4 3.2.8 4-1.6 2.4-4 .8-2.4 1.6-4 2.4-5.6 1.6-10.4-8-11.2-11.2-3.2zm6.4 2.4c0 .8-.8 2.4-1.6 3.2-1.6-.8-1.6-2.4-.8-4 .8-2.4 2.4-.8 2.4.8z"
            style="" fill="#cfe7e8" data-original="#cfe7e8"></path>
        <path
            d="M169.6 250.4c-1.6.8-4 3.2-5.6 4.8 0-3.2.8-8 .8-9.6 0-2.4-.8-3.2-2.4-.8-2.4 4.8-4.8 11.2-5.6 16-10.4 7.2-23.2 14.4-32 18.4-4 1.6-1.6 3.2 1.6 2.4 12-4 21.6-7.2 30.4-11.2.8 7.2 3.2 12 9.6 13.6 12 3.2 24-7.2 37.6-25.6 3.2 8.8 11.2 20.8 32 24 8.8 1.6 8 .8 9.6-4 .8-4 2.4-4.8-4.8-6.4-8.8-3.2-12-9.6-3.2-13.6s20.8-7.2 28.8-8.8c5.6-.8 7.2-.8 8.8-5.6 1.6-5.6 2.4-6.4-3.2-5.6-6.4.8-36.8 1.6-44.8.8 6.4-3.2 15.2-6.4 21.6-8.8 2.4 1.6 3.2.8 2.4-.8 2.4-.8 4.8-1.6 7.2-3.2 7.2-4 10.4-12.8 2.4-18.4s-14.4-7.2-18.4-1.6c-3.2 4.8-6.4 9.6-1.6 16-7.2 2.4-13.6 4.8-20 7.2-4.8 1.6-7.2 2.4-8.8 8.8s-2.4 6.4 4 7.2c8.8 0 16.8 0 22.4 4.8-8.8 3.2-15.2 9.6-12 18.4-4-.8-8-2.4-11.2-5.6-6.4-6.4-6.4-17.6-8.8-30.4-2.4-12.8-8-24-10.4-28.8-1.6-4.8-2.4-2.4-4 .8s-3.2 4.8-1.6 9.6c3.2 8 8 24 10.4 33.6-4.8 11.2-17.6 24.8-28 26.4-8 1.6-10.4-3.2-9.6-7.2 5.6-3.2 10.4-7.2 15.2-12 9.6-10.4 11.2-18.4 4.8-35.2 4 .8 3.2-2.4-2.4-9.6-4-4.8-4.8-4-7.2.8-1.6 4-3.2 7.2 1.6 8.8.8 2.4 2.4 5.6 4.8 9.6 4.8 10.4-3.2 14.4-10.4 20.8zm76-35.2c0-2.4.8-2.4 4.8 0s7.2 3.2 1.6 4c-1.6.8-4 .8-5.6 1.6 0-2.4 0-4-.8-5.6z"
            style="" fill="#ffffff" data-original="#ffffff"></path>
        <path
            d="M271.2 238.4c-4 0-21.6.8-33.6.8l16 13.6c4-1.6 8.8-2.4 12-3.2 5.6-.8 7.2-.8 8.8-5.6 1.6-5.6 2.4-6.4-3.2-5.6zM192.8 200.8l1.6 1.6c0-1.6-.8-1.6-1.6-1.6zM233.6 235.2c4.8-2.4 10.4-4 14.4-5.6 2.4 1.6 3.2.8 2.4-.8 2.4-.8 4.8-1.6 7.2-3.2 7.2-4 10.4-12.8 2.4-18.4-8-5.6-14.4-7.2-18.4-1.6-3.2 4.8-6.4 9.6-1.6 16-5.6 1.6-10.4 3.2-15.2 5.6l8.8 8zm17.6-20c4 2.4 7.2 3.2 1.6 4-1.6.8-4 .8-5.6 1.6-.8-2.4-.8-4-.8-4.8-.8-3.2.8-3.2 4.8-.8z"
            style="" fill="#cfe7e8" data-original="#cfe7e8"></path>
        <path
            d="M264 280c2.4-.8 6.4-3.2 9.6-5.6 3.2-3.2.8-2.4-1.6-1.6s-4.8 2.4-8 3.2c-3.2 1.6-4 0-2.4-5.6 1.6-4.8 0-4.8-2.4-4s-3.2 2.4-5.6 4c-1.6.8-1.6 2.4 2.4.8 3.2-1.6 2.4 0 1.6 4-1.6 4 .8 6.4 6.4 4.8z"
            style="" fill="#ffffff" data-original="#ffffff"></path>
        <path
            d="M189.6 192.8c2.4-5.6 4-11.2 5.6-15.2s3.2-3.2 2.4.8c-.8 7.2-.8 18.4 6.4 23.2 7.2 4 18.4-3.2 22.4-11.2 12 15.2 22.4 8 23.2-6.4 0-4.8-1.6-14.4-3.2-17.6-1.6-3.2 0-3.2 1.6-1.6s4.8 3.2 3.2-2.4c-1.6-4.8-4-8-6.4-10.4s-3.2-.8-4 .8-.8 2.4-2.4 4-.8 2.4 0 4.8c4.8 11.2 8.8 28 1.6 29.6-6.4 1.6-10.4-12.8-10.4-19.2 0-8-1.6-15.2-3.2-20-1.6-4.8-2.4-4.8-4-2.4-.8 1.6-.8 3.2-2.4 4.8-.8 1.6 0 2.4.8 5.6 4 18.4 3.2 26.4-4.8 31.2-8 4.8-12.8 0-12.8-5.6s0-12.8.8-17.6c.8-4.8 1.6-6.4 0-8.8s-3.2-1.6-5.6 1.6c-4.8 7.2-10.4 19.2-12 24.8s-5.6 4-8-.8c-3.2-5.6-2.4-16-1.6-20.8.8-4 .8-5.6-1.6-1.6-4 11.2-4 22.4 4.8 32 4 7.2 7.2 4 9.6-1.6z"
            style="" fill="#cfe7e8" data-original="#cfe7e8"></path>
        <path
            d="M212 171.2c0 2.4 0 5.6 1.6.8.8-4.8.8-11.2-.8-15.2s-2.4-4.8-4-3.2-1.6 2.4 0 4c1.6 2.4 4 8 3.2 13.6zM228.8 208.8c0 6.4-1.6 6.4-4 0-.8-2.4-1.6-2.4-2.4.8 0 5.6-2.4 6.4-4 .8-.8-2.4-.8-4.8-1.6-.8-.8 3.2 0 5.6 1.6 8 1.6 1.6 4 1.6 4.8-.8s1.6-2.4 3.2-.8c1.6 1.6 8 0 4.8-8.8-1.6-3.2-2.4-2.4-2.4 1.6zM293.6 158.4c2.4 1.6 4.8 5.6 4 10.4-.8 4 0 6.4 2.4.8 2.4-5.6.8-12-1.6-16s-3.2-2.4-4.8-.8c-1.6 2.4-2.4 4.8 0 5.6zM252.8 160.8c0 2.4.8 4 4 4.8 6.4 8.8 13.6 18.4 20 27.2.8 8 2.4 16 3.2 23.2 1.6 16 4.8 37.6 2.4 47.2-1.6 7.2 0 9.6 3.2-.8s3.2-20.8.8-36c-.8-6.4-.8-13.6-1.6-21.6 10.4 16.8 20.8 32.8 24.8 44 2.4 6.4 4.8 7.2 2.4-.8-2.4-11.2-12.8-30.4-28.8-54.4-.8-6.4-.8-12.8-.8-17.6 2.4 2.4 4 .8 3.2-2.4-1.6-6.4-4-11.2-6.4-17.6-.8-3.2-4-3.2-5.6.8-1.6 4.8-1.6 5.6 0 8.8 0 4 .8 9.6 1.6 15.2-2.4-4-6.4-9.6-9.6-13.6 4 1.6 7.2.8 3.2-4-4-4-9.6-8.8-12.8-12-3.2-3.2-4.8-.8-4.8 1.6 1.6 4 2.4 5.6 1.6 8zM298.4 183.2c-.8 4-2.4 2.4-3.2-.8-.8-1.6-1.6-.8-1.6 2.4.8 3.2 1.6 5.6 4 3.2 1.6-1.6 1.6-1.6 4 0 1.6 1.6 3.2 0 4-.8 0-.8.8-2.4 0-6.4s-1.6-1.6-2.4 1.6-2.4 4-3.2 0c0-3.2-1.6-2.4-1.6.8z"
            style="" fill="#cfe7e8" data-original="#cfe7e8"></path>
        <path
            d="M316.8 235.2c.8 14.4 2.4 20.8-6.4 31.2-9.6 10.4-16 13.6-20 14.4-5.6 1.6-7.2 4 .8 3.2 12-.8 13.6-.8 24-12.8 5.6-6.4 8-14.4 8-33.6-.8-33.6-4.8-48-4.8-66.4 1.6 1.6 4 1.6 3.2-1.6-1.6-4-2.4-8.8-3.2-12.8-1.6-4-2.4-5.6-4-3.2-1.6 2.4-3.2 3.2-4 4.8s-1.6 4 0 6.4c4.8 39.2 5.6 56 6.4 70.4zM337.6 239.2c.8 8 2.4 13.6 0 23.2-.8 2.4.8 4 2.4 0 7.2-13.6 2.4-25.6 1.6-33.6-.8-12-5.6-43.2-6.4-56l.8.8c3.2 1.6 7.2 3.2 4.8-1.6-2.4-4-4.8-11.2-6.4-16-1.6-4.8-2.4-4.8-4.8-.8-4.8 6.4-1.6 12.8 0 20.8 3.2 27.2 7.2 55.2 8 63.2zM354.4 194.4c2.4 2.4 4 7.2 5.6 9.6 1.6 4 3.2.8 3.2-1.6 0-2.4-.8-9.6 0-12 1.6-4 4 1.6 4.8-.8.8-1.6-.8-2.4-1.6-4-.8-2.4-1.6-1.6-3.2-.8-1.6 1.6-2.4 3.2-2.4 4v8.8c0 3.2-.8 3.2-1.6 1.6-.8-2.4-3.2-8-4.8-9.6-1.6-1.6-4-.8-4 1.6v4c0 1.6 3.2 1.6 4-.8zM352.8 225.6c0 2.4 3.2-.8 5.6-2.4s9.6-6.4 12.8-8c3.2-1.6 2.4-2.4 1.6-5.6 0-3.2-2.4-.8-4.8 1.6s-9.6 7.2-12 9.6-3.2 3.2-3.2 4.8z"
            style="" fill="#cfe7e8" data-original="#cfe7e8"></path>
        <path
            d="M336 268.8c-3.2-6.4-3.2-12.8-3.2-18.4 0-4.8-.8-8.8-2.4-.8-4.8 19.2-1.6 23.2 3.2 27.2 6.4 5.6 8.8 6.4 12 .8 6.4-9.6 8.8-17.6 12-22.4 3.2-4 3.2-.8 4.8.8 4 4.8 7.2 6.4 12.8 7.2 5.6.8 15.2-4 14.4-21.6-.8-11.2-1.6-25.6-2.4-41.6 5.6 7.2 9.6 13.6 13.6 19.2 1.6 10.4 2.4 20 2.4 27.2-.8 8.8 1.6 8.8 3.2 0 .8-3.2.8-11.2 0-20 7.2 9.6 11.2 15.2 13.6 20 3.2 5.6 4.8 9.6 4-.8 0-4-1.6-7.2-6.4-14.4-4.8-6.4-8.8-12.8-12.8-19.2-1.6-15.2-3.2-32-3.2-40.8 2.4 1.6 4 0 2.4-3.2-.8-3.2-3.2-12.8-4.8-16-1.6-3.2-3.2-3.2-4.8.8-1.6 3.2-3.2 4.8-2.4 7.2.8 15.2 2.4 29.6 4.8 42.4-4-5.6-8-11.2-11.2-16 0-5.6-.8-11.2-.8-16.8 2.4 1.6 3.2 1.6 2.4-2.4-.8-3.2-4-11.2-5.6-14.4-1.6-3.2-2.4-3.2-4-.8-2.4 4-3.2 7.2-.8 11.2 0 4 .8 7.2.8 11.2-2.4-3.2-4-6.4-6.4-8.8 2.4.8 4-.8 1.6-3.2s-7.2-6.4-9.6-8.8c-2.4-3.2-4-2.4-4 0v7.2c0 2.4 0 4 2.4 8 5.6 7.2 12 14.4 16.8 21.6 2.4 25.6 3.2 42.4 3.2 52.8 0 6.4-2.4 9.6-5.6 10.4-3.2.8-6.4-.8-9.6-5.6-5.6-8-8-6.4-12 .8s-7.2 12.8-9.6 17.6c-1.6 4.8-5.6 8.8-8.8 2.4zM412.8 180c0 4.8 1.6 4 2.4 0s.8-12-1.6-16.8c-2.4-5.6-3.2-3.2-4-1.6-1.6 2.4-1.6 3.2.8 5.6.8 2.4 2.4 8 2.4 12.8z"
            style="" fill="#cfe7e8" data-original="#cfe7e8"></path>
        <path
            d="M434.4 229.6c-1.6-33.6-5.6-48-4.8-60.8 3.2 2.4 4 1.6 2.4-2.4s-4-8.8-5.6-13.6c-1.6-4-2.4-3.2-4.8 0s-2.4 5.6-1.6 7.2c4.8 40.8 7.2 62.4 8 75.2.8 17.6-3.2 28-20.8 40-5.6 4-12 8 1.6 4.8 12.8-4 27.2-12.8 25.6-50.4zM389.6 264.8c-2.4 3.2 3.2 4.8 4 2.4 1.6 2.4 0 6.4-2.4 8.8-4 3.2-1.6 4 .8 1.6 2.4-1.6 8.8-8.8 4.8-13.6-2.4-1.6-5.6-1.6-7.2.8z"
            style="" fill="#cfe7e8" data-original="#cfe7e8"></path>
        <path
            d="M372 324c-10.4 0-20 0-30.4.8v-3.2c3.2-4 2.4-4 0-8-.8-1.6-1.6-3.2-4 0s-2.4 4 .8 8v3.2c-79.2.8-166.4 0-241.6-.8 8 13.6 35.2 12.8 60 12.8 22.4 0 89.6 0 180.8-2.4v4c-3.2 4-2.4 4 0 8 2.4 3.2 3.2 1.6 4 0 .8-.8.8-1.6.8-1.6h12c0 1.6 2.4 2.4 3.2 2.4.8 0 3.2-.8 3.2-2.4h13.6c1.6 2.4 3.2 3.2 5.6 3.2 4.8 0 7.2-5.6 6.4-12.8-.8-10.4-4.8-12-14.4-11.2zm-11.2 16c0-1.6-2.4-2.4-3.2-2.4-.8 0-3.2.8-3.2 2.4h-12c0-.8-.8-1.6-2.4-3.2v-4c10.4 0 21.6-.8 32.8-.8-.8 2.4-.8 4.8-.8 7.2l-11.2.8z"
            style="" fill="#ffffff" data-original="#ffffff"></path>
        <path
            d="M372 324c-10.4 0-20 0-30.4.8v-3.2c3.2-4 2.4-4 0-8-.8-1.6-1.6-3.2-4 0s-2.4 4 .8 8v3.2h-.8l11.2 9.6c8 0 16.8-.8 24.8-.8-.8 2.4-.8 4.8-.8 7.2h-12c0-1.6-2.4-2.4-3.2-2.4-.8 0-2.4.8-2.4 1.6l5.6 4.8v-.8h13.6c1.6 2.4 3.2 3.2 5.6 3.2 4.8 0 7.2-5.6 6.4-12.8-.8-9.6-4.8-11.2-14.4-10.4z"
            style="" fill="#cfe7e8" data-original="#cfe7e8"></path>
    </g>
</svg>