<svg width="378" height="143" viewBox="0 0 378 143" fill="none" xmlns="http://www.w3.org/2000/svg">
    <path
        d="M111.744 96.2464H132.798V107.961H99V52.5541H111.744V96.2464ZM152.507 52V62.5273H140.001V52H152.507ZM152.507 66.8016V107.961H140.001V66.8016H152.507ZM185.831 66.1683C193.508 66.1683 201.344 71.3133 201.344 84.3735V107.961H188.838V85.2441C188.838 78.9911 186.701 77.0123 182.744 77.0123C177.124 77.0123 173.878 82.4738 173.087 84.8484V107.961H160.581V66.8016H173.087V73.9253C173.878 71.9465 178.074 66.1683 185.831 66.1683ZM237.438 107.961L224.061 91.9721L221.449 94.7425V107.961H208.943V93.0011V52H221.449V79.466L233.085 66.8016H248.045L231.739 83.9777L251.686 107.961H237.438ZM312.475 52.5541H325.219V87.8562C325.219 101.233 315.245 109.148 303.531 109.148C291.737 109.148 281.764 101.233 281.764 87.8562V52.5541H294.507V87.9353C294.507 95.534 299.652 97.1962 303.531 97.1962C307.409 97.1962 312.475 95.534 312.475 87.9353V52.5541ZM357.117 66.0892C366.536 66.0892 377.38 73.1338 377.38 87.3021C377.38 102.025 366.536 108.753 357.117 108.753C350.785 108.753 347.065 105.27 346.511 103.845V123H334.004V99.175V66.8016H346.511V70.6009C347.065 69.7302 350.785 66.0892 357.117 66.0892ZM355.297 97.7503C360.679 97.7503 365.27 94.1093 365.27 87.3021C365.27 80.7324 360.679 77.0914 355.297 77.0914C350.152 77.0914 345.957 80.6533 345.957 87.3021C345.957 94.1884 350.152 97.7503 355.297 97.7503Z"
        fill="#A303A0" />
    <path d="M0 120.014V0H22.9018V120.014H46.0239L68.9257 142.916H22.9018L0 120.014Z" fill="#A303A0" />
</svg>