<svg width="173" height="44" viewBox="0 0 173 44" fill="none" xmlns="http://www.w3.org/2000/svg">
<path d="M7.88814 27.388H20.9207V34.6392H0V0.342962H7.88814V27.388ZM33.1204 0V6.51629H25.3792V0H33.1204ZM33.1204 9.16201V34.6392H25.3792V9.16201H33.1204ZM53.7472 8.77005C58.4996 8.77005 63.3501 11.9547 63.3501 20.0388V34.6392H55.609V20.5778C55.609 16.7072 54.2861 15.4823 51.8364 15.4823C48.3577 15.4823 46.349 18.863 45.859 20.3328V34.6392H38.1179V9.16201H45.859V13.5715C46.349 12.3467 48.9457 8.77005 53.7472 8.77005ZM85.6917 34.6392L77.4116 24.7423L75.7948 26.4571V34.6392H68.0536V25.3792V0H75.7948V17.0012L82.997 9.16201H92.257L82.1641 19.7939L94.5107 34.6392H85.6917ZM132.139 0.342962H140.027V22.1946C140.027 30.4747 133.853 35.3742 126.602 35.3742C119.302 35.3742 113.129 30.4747 113.129 22.1946V0.342962H121.017V22.2436C121.017 26.9471 124.202 27.976 126.602 27.976C129.003 27.976 132.139 26.9471 132.139 22.2436V0.342962ZM159.772 8.72105C165.602 8.72105 172.314 13.0816 172.314 21.8516C172.314 30.9646 165.602 35.1292 159.772 35.1292C155.852 35.1292 153.549 32.9734 153.206 32.0915V43.9482H145.465V29.2008V9.16201H153.206V11.5138C153.549 10.9748 155.852 8.72105 159.772 8.72105ZM158.645 28.3189C161.976 28.3189 164.818 26.0652 164.818 21.8516C164.818 17.7851 161.976 15.5313 158.645 15.5313C155.46 15.5313 152.863 17.7361 152.863 21.8516C152.863 26.1142 155.46 28.3189 158.645 28.3189Z" fill="#A303A0"/>
</svg>
